<?xml version="1.0"?>
<svg xmlns="http://www.w3.org/2000/svg" viewBox="0 0 99.39 95.69">
  <polygon fill="#EB5D35" points="99.39 13.79 99.39 0 0 0 0 13.79 42.47 13.79 42.47 26.13 38.18 26.13 35.19 26.13 34.28 26.13 34.28 26.13 0 26.13 0 40.57 25.95 40.57 6.64 69.84 19.15 77.06 42.47 40.83 42.47 50.36 42.47 95.02 56.92 95.02 56.92 50.36 56.92 40.83 80.24 77.06 92.75 69.84 73.45 40.57 99.39 40.57 99.39 26.13 68.46 26.13 65.11 26.13 65.11 26.13 61.21 26.13 56.92 26.13 56.92 13.79 99.39 13.79"></polygon>
</svg>