<?xml version="1.0"?>
<svg xmlns="http://www.w3.org/2000/svg" viewBox="0 0 361.71 95.69">
  <g fill="#FFFFFF">
    <path d="M148.54,6.1h-13.37c-1.17,0-2.12.04-2.84.13-.72.08-1.28.32-1.67.71-.39.39-.67.99-.84,1.8-.17.81-.25,1.94-.25,3.39v29.67h-6.27V9.86c0-1.62.19-3.04.58-4.26.39-1.22,1-2.26,1.84-3.09s1.87-1.46,3.09-1.88C130.04.21,131.49,0,133.17,0h15.38v6.1Z"></path>
        <path d="M173.95,8.32c-1.06-2.09-2.48-3.51-4.26-4.76-1.78-1.25-3.83-2.16-6.14-2.72C161.24.28,158.91,0,156.57,0c-.2,0-.39.01-.58.02v6.09c.2,0,.39-.01.58-.01,4.12,0,7.23.74,9.32,2.21,2.09,1.48,3.22,3.2,3.38,6.82.06,1.23-.73,2.02-2.34,2.38-1.62.36-3.62.58-6.02.67-2.4.08-5.03.17-7.9.25-2.87.08-5.53.46-7.98,1.13-2.45.67-4.5,1.8-6.14,3.39-1.64,1.59-2.47,3.91-2.47,6.98,0,2.4.7,4.44,2.09,6.14,1.39,1.7,3.15,3.02,5.27,3.97,2.12.95,4.47,1.5,7.06,1.67,2.59.17,5.11-.08,7.56-.75,2.45-.67,4.67-1.77,6.64-3.3,1.98-1.53,3.38-3.52,4.22-5.98v3.93c0,.89.15,1.71.46,2.47.31.75.72,1.41,1.25,1.96.53.56,1.2.99,2.01,1.3.81.31,1.6.46,2.55.46v-25.66c0-3.12-.53-5.73-1.59-7.81ZM169.27,26.99c0,1.95-.66,3.61-1.96,4.97-1.31,1.37-2.94,2.45-4.89,3.26-1.95.81-4.07,1.34-6.35,1.59-2.29.25-4.4.17-6.35-.25-1.95-.42-3.58-1.2-4.89-2.34-1.31-1.14-1.96-2.6-1.96-4.39s.46-3.16,1.38-4.14c.92-.97,2.14-1.66,3.68-2.05,1.53-.39,3.26-.61,5.18-.67,1.92-.05,3.86-.1,5.81-.13,1.95-.03,3.84-.14,5.68-.33,1.84-.2,3.4-.68,4.68-1.46v5.93Z"></path>
        <path d="M180.68,41.79h6.27V0h-6.27v41.79Z"></path>
        <path d="M192.09,6.1V0h36.86v7.35l-26.16,26.16c-.67.67-1.49,1.46-2.47,2.05-.98.59-1.88,1.07-2.72,1.46h0c.89-.39,1.89-.71,3.01-.96,1.11-.25,2.14-.38,3.09-.38h25.24v6.1h-36.86v-7.35l26.41-26.16c.67-.67,1.49-1.3,2.47-1.88.97-.59,1.88-1.07,2.72-1.46h0c-.89.39-1.89.71-3.01.96-1.12.25-2.15.21-3.09.21h-25.49Z"></path>
        <path d="M150.55,87.58c-.78,1.39-1.6,2.61-2.47,3.64-.86,1.03-1.83,1.88-2.88,2.55-1.06.67-2.19,1.16-3.39,1.46-1.2.31-2.52.46-3.97.46-2.95,0-5.38-.6-7.27-1.8-1.89-1.2-3.37-2.76-4.43-4.68-1.06-1.92-1.8-4.07-2.21-6.43-.42-2.37-.63-4.75-.63-7.15v-22.4h6.27v22.48c0,2.29.21,4.29.63,6.02.42,1.73,1.04,3.15,1.88,4.26.84,1.12,1.91,1.95,3.22,2.51,1.31.56,2.85.84,4.64.84.78,0,1.84-.25,3.18-.75,1.34-.5,2.65-1.49,3.93-2.97,1.28-1.48,2.38-3.55,3.3-6.23.92-2.67,1.38-6.18,1.38-10.53v-15.63h6.27v41.79h-6.27v-7.27c0-.84.07-1.77.21-2.8.14-1.03.29-1.96.46-2.8h0c-.17.84-.4,1.75-.71,2.76-.31,1-.79,1.89-1.13,2.67Z"></path>
        <path d="M186.95,59.33h-10.98c-1.17,0-2.12.04-2.84.13-.73.08-1.28.32-1.67.71-.39.39-.67.99-.84,1.8-.17.81-.25,1.94-.25,3.39v29.67h-6.27v-31.92c0-1.62.19-3.04.59-4.26.39-1.22,1-2.26,1.84-3.09.84-.84,1.87-1.46,3.09-1.88,1.22-.42,2.67-.63,4.35-.63h12.99v6.1Z"></path>
        <path d="M200.28,59.42c1-1,2.16-1.91,3.47-2.72,1.31-.81,2.69-1.5,4.14-2.09,1.45-.58,2.94-1.03,4.47-1.34,1.53-.31,2.99-.46,4.39-.46,5.85.06,10.49,1.83,13.91,5.31,3.43,3.48,5.14,8.85,5.14,16.09s-1.71,12.62-5.14,16.13c-3.43,3.51-8.06,5.26-13.91,5.26-1.39,0-2.86-.14-4.39-.42-1.53-.28-3.02-.7-4.47-1.25-1.45-.56-2.83-1.22-4.14-2.01-1.31-.78-2.47-1.64-3.47-2.59-.67-.67-1.41-1.45-1.88-2.51-.47-1.06-.85-2.03-1.13-2.92h0c.28.89.53,1.89.75,3.01.22,1.12.33,2.15.33,3.09v5.1h-6.27v-48.18h6.27v11.82c0,.95-.11,1.98-.33,3.09-.22,1.12-.47,2.15-.75,3.09h0c.28-.89.65-1.87,1.13-2.93.47-1.06,1.21-1.92,1.88-2.59ZM214.32,89.84c2.62,0,4.87-.29,6.77-.88,1.89-.59,3.47-1.49,4.72-2.72,1.25-1.23,2.19-2.84,2.8-4.85.61-2.01.92-4.4.92-7.19s-.31-5.08-.92-7.06c-.61-1.98-1.56-3.61-2.84-4.89-1.28-1.28-2.87-2.23-4.76-2.84-1.89-.61-4.12-.95-6.69-1-1.78,0-3.61.35-5.47,1.04-1.87.7-3.58,1.71-5.14,3.05-1.56,1.34-2.84,3-3.84,4.97-1,1.98-1.5,4.22-1.5,6.73s.5,4.74,1.5,6.69c1,1.95,2.28,3.59,3.84,4.93,1.56,1.34,3.27,2.34,5.14,3.01,1.87.67,3.69,1,5.47,1Z"></path>
        <path d="M291.21,61.59c.84-1.56,1.98-2.9,3.09-4.01s2.3-2.03,3.55-2.76c1.25-.72,2.56-1.27,3.93-1.63,1.36-.36,2.77-.54,4.22-.54,2.45,0,4.51.6,6.19,1.8,1.67,1.2,2.99,2.74,3.97,4.64.97,1.89,1.67,4.04,2.09,6.43.42,2.4.63,4.76.63,7.1v22.48h-6.35v-22.48c0-2.01-.15-3.84-.46-5.52-.31-1.67-.81-3.11-1.5-4.3-.7-1.2-1.59-2.13-2.67-2.8-1.09-.67-2.38-1-3.89-1-.95,0-2.2.25-3.76.75-1.56.5-3.09,1.49-4.6,2.97-1.5,1.48-2.81,3.55-3.93,6.23-1.12,2.67-1.67,6.18-1.67,10.53v15.63h-6.27v-41.79h6.27v7.94c0,.84-.06,1.77-.17,2.8-.11,1.03-.28,1.96-.5,2.8h0c.22-.84.47-1.74.75-2.72.28-.97.64-1.82,1.09-2.55Z"></path>
        <path d="M278.63,95.1c-.95,0-1.74-.15-2.55-.46-.81-.31-1.48-.74-2.01-1.3-.53-.56-.95-1.21-1.25-1.96-.31-.75-.46-1.57-.46-2.47v-3.93c-.84,2.45-2.24,4.44-4.22,5.98-1.98,1.53-4.19,2.63-6.64,3.3-2.45.67-4.97.92-7.56.75-2.59-.17-4.94-.72-7.06-1.67-2.12-.95-3.87-2.27-5.26-3.97-1.39-1.7-2.09-3.75-2.09-6.14,0-3.06.82-5.39,2.47-6.98,1.64-1.59,3.69-2.72,6.14-3.39,2.45-.67,5.11-1.04,7.98-1.13,2.87-.08,5.5-.17,7.9-.25,2.4-.08,4.4-.31,6.02-.67,1.61-.36,2.4-1.16,2.34-2.38-.17-3.62-1.29-6.17-3.38-7.65-2.09-1.48-5.2-2.21-9.32-2.21-1.67,0-3.23.14-4.68.42-1.45.28-2.73.75-3.85,1.42-1.12.67-2.05,1.59-2.8,2.76-.75,1.17-1.27,2.67-1.54,4.51l-5.85-1.25c.28-2.51,1.02-4.61,2.21-6.31,1.2-1.7,2.67-3.08,4.43-4.14,1.75-1.06,3.66-1.81,5.73-2.26,2.06-.44,4.18-.67,6.35-.67,2.34,0,4.67.28,6.98.84,2.31.56,4.36,1.46,6.14,2.72,1.78,1.25,3.2,2.92,4.26,5.01,1.06,2.09,1.59,4.69,1.59,7.81v16.88M245.96,83.15c0,1.78.65,3.25,1.96,4.39,1.31,1.14,2.94,1.92,4.89,2.34,1.95.42,4.07.5,6.35.25,2.28-.25,4.4-.78,6.35-1.59,1.95-.81,3.58-1.89,4.89-3.26,1.31-1.36,1.96-3.02,1.96-4.97v-5.93c-1.28.78-2.84,1.27-4.68,1.46-1.84.2-3.73.31-5.68.33-1.95.03-3.89.07-5.81.13-1.92.06-3.65.28-5.18.67-1.53.39-2.76,1.07-3.68,2.05-.92.98-1.38,2.35-1.38,4.14Z"></path>
        <path d="M361.71,95.1c-.95,0-1.74-.15-2.55-.46-.81-.31-1.48-.74-2.01-1.3-.53-.56-.95-1.21-1.25-1.96-.31-.75-.46-1.57-.46-2.47v-3.93c-.84,2.45-2.24,4.44-4.22,5.98-1.98,1.53-4.19,2.63-6.64,3.3-2.45.67-4.97.92-7.56.75-2.59-.17-4.94-.72-7.06-1.67-2.12-.95-3.87-2.27-5.26-3.97-1.39-1.7-2.09-3.75-2.09-6.14,0-3.06.82-5.39,2.47-6.98,1.64-1.59,3.69-2.72,6.14-3.39,2.45-.67,5.11-1.04,7.98-1.13,2.87-.08,5.5-.17,7.9-.25,2.4-.08,4.4-.31,6.02-.67,1.61-.36,2.4-1.16,2.34-2.38-.17-3.62-1.29-6.17-3.38-7.65-2.09-1.48-5.2-2.21-9.32-2.21-1.67,0-3.23.14-4.68.42-1.45.28-2.73.75-3.85,1.42-1.12.67-2.05,1.59-2.8,2.76-.75,1.17-1.27,2.67-1.54,4.51l-5.85-1.25c.28-2.51,1.02-4.61,2.21-6.31,1.2-1.7,2.67-3.08,4.43-4.14,1.75-1.06,3.66-1.81,5.73-2.26,2.06-.44,4.18-.67,6.35-.67,2.34,0,4.67.28,6.98.84,2.31.56,4.36,1.46,6.14,2.72,1.78,1.25,3.2,2.92,4.26,5.01,1.06,2.09,1.59,4.69,1.59,7.81v16.88M329.03,83.15c0,1.78.65,3.25,1.96,4.39,1.31,1.14,2.94,1.92,4.89,2.34,1.95.42,4.07.5,6.35.25,2.28-.25,4.4-.78,6.35-1.59,1.95-.81,3.58-1.89,4.89-3.26,1.31-1.36,1.96-3.02,1.96-4.97v-5.93c-1.28.78-2.84,1.27-4.68,1.46-1.84.2-3.73.31-5.68.33-1.95.03-3.89.07-5.81.13-1.92.06-3.65.28-5.18.67-1.53.39-2.76,1.07-3.68,2.05-.92.98-1.38,2.35-1.38,4.14Z"></path>
  </g>
  <polygon fill="#EB5D35" points="99.39 13.79 99.39 0 0 0 0 13.79 42.47 13.79 42.47 26.13 38.18 26.13 35.19 26.13 34.28 26.13 34.28 26.13 0 26.13 0 40.57 25.95 40.57 6.64 69.84 19.15 77.06 42.47 40.83 42.47 50.36 42.47 95.02 56.92 95.02 56.92 50.36 56.92 40.83 80.24 77.06 92.75 69.84 73.45 40.57 99.39 40.57 99.39 26.13 68.46 26.13 65.11 26.13 65.11 26.13 61.21 26.13 56.92 26.13 56.92 13.79 99.39 13.79"></polygon>
</svg>